<?xml version="1.0" encoding="utf-8"?>
<!-- Generator: Adobe Illustrator 19.1.0, SVG Export Plug-In . SVG Version: 6.00 Build 0)  -->
<svg version="1.1" id="Layer_1" xmlns="http://www.w3.org/2000/svg" xmlns:xlink="http://www.w3.org/1999/xlink" x="0px" y="0px"
	 viewBox="0 0 841.9 595.3" style="enable-background:new 0 0 841.9 595.3;" xml:space="preserve">
<style type="text/css">
	.st0{fill:#4F86BE;}
	.st1{fill:#5B74BF;}
	.st2{fill:#6A4FC0;}
	.st3{fill:#6E4FAD;}
	.st4{fill:#00B4BD;}
	.st5{fill:#6460BF;}
	.st6{fill:#665ABF;}
	.st7{fill:#0FAEBD;}
	.st8{fill:#577BBF;}
	.st9{fill:#5F6CBF;}
	.st10{fill:#6167BF;}
	.st11{fill:#5380BE;}
	.st12{fill:#26A7BD;}
	.st13{fill:#30A1BD;}
	.st14{fill:#3B9ABE;}
	.st15{fill:#498DBE;}
	.st16{fill:#4393BE;}
	.st17{display:none;fill:none;}
	.st18{fill:#606060;}
	.st19{fill:#FFFFFF;}
	.st20{fill:#1E120D;}
	.st21{fill:#5B5B5B;}
</style>
<symbol  id="Simbolo_GTi" viewBox="660 -745.6 1305 1493.3">
	<polygon class="st0" points="993,-531.6 1273.8,-372.7 993,-213.8 	"/>
	<polygon class="st1" points="1625,-210.8 1344.2,-369.7 1625,-528.6 	"/>
	<polygon class="st2" points="1625,532.1 1344.2,373.3 1625,214.4 	"/>
	<polygon class="st3" points="1325,404.2 1624.7,573.8 1325,746.6 	"/>
	<polygon class="st4" points="1290,405.2 1290,747.6 990.3,574.8 	"/>
	<polygon class="st5" points="1661,-147.5 1923,0.8 1661,149 	"/>
	<polygon class="st6" points="1965,357.1 1685.4,183.6 1965,25.3 	"/>
	<polygon class="st6" points="1661,213 1945.1,389.4 1661,553.2 	"/>
	<polygon class="st7" points="992,212.4 1272.8,371.3 992,530.1 	"/>
	<polygon class="st8" points="1324,-401.9 1324,-744.6 1624,-571.7 	"/>
	<polygon class="st9" points="1661,-209.5 1661,-550 1945.1,-386.1 	"/>
	<polygon class="st10" points="1685.3,-180 1965,-353.9 1965,-21.8 	"/>
	<polygon class="st11" points="1290,-402.9 990,-572.7 1290,-745.6 	"/>
	<polygon class="st12" points="955,553.2 678.6,393.8 955,219.2 	"/>
	<polygon class="st13" points="944.8,183.5 660,363.4 660,22.3 	"/>
	<polygon class="st14" points="957,-147.5 957,149 695,0.8 	"/>
	<polygon class="st15" points="957,-215.2 676.6,-388.3 957,-550 	"/>
	<polygon class="st16" points="944.5,-180.8 660,-19.8 660,-356.3 	"/>
	<polygon class="st17" points="660,747 1965,747 1965,-745 660,-745 	"/>
</symbol>
<g id="Simbolo_GTi_1_">
</g>
<g id="Simbolo_GTi_5_">
</g>
<g>
	<g>
		
			<use xlink:href="#Simbolo_GTi"  width="1305" height="1493.3" id="XMLID_5_" x="660" y="-745.6" transform="matrix(0.2717 0 0 -0.2719 64.3259 297.9119)" style="overflow:visible;"/>
	</g>
</g>
<g id="Simbolo_GTi_4_">
</g>
<g id="Simbolo_GTi_2_">
</g>
</svg>
